<svg height="512" viewBox="0 0 75.77 126.79" width="512" xmlns="http://www.w3.org/2000/svg"><g id="Layer_2" data-name="Layer 2"><g id="Layer_1-2" data-name="Layer 1"><path fill="#ffffff" d="m54.76 3.79a12.18 12.18 0 0 1 17.43-.24 12 12 0 0 1 2.67 4 12.16 12.16 0 0 1 -2.86 13.45l-40.56 40.42a3 3 0 0 0 -.67 1 3 3 0 0 0 0 2.35 2.84 2.84 0 0 0 .67 1l40.56 40.48a12.19 12.19 0 0 1 -10.93 20.37 12.93 12.93 0 0 1 -6.65-3.88l-50.55-50.45a12.51 12.51 0 0 1 -3.65-6.64 12 12 0 0 1 .31-5.84 12.22 12.22 0 0 1 3-5z"/></g></g></svg>