<svg xmlns="http://www.w3.org/2000/svg" version="1.1" xmlns:xlink="http://www.w3.org/1999/xlink" width="512" height="512" x="0" y="0" viewBox="0 0 24 24" style="enable-background:new 0 0 512 512" xml:space="preserve" class=""><g><path fill="#10b981" d="M24 12c0-2.3-.1-4.4-.5-5.6-.4-1.4-.9-2.7-2.1-3.9C19.9 1.1 18.6.7 16.6.3 15.2.1 13.5 0 12.5 0h-.9c-1.1 0-2.7.1-4.2.3-2 .4-3.4.9-4.8 2.2C1.3 3.7.9 5 .5 6.4.1 7.6 0 9.7 0 12s.1 4.4.5 5.6c.4 1.4.9 2.7 2.1 3.9 1.5 1.4 2.8 1.8 4.8 2.2C9 24 11 24 12 24c1 0 3 0 4.7-.3 1.9-.4 3.3-.8 4.8-2.2 1.2-1.1 1.7-2.4 2.1-3.9.3-1.2.4-3.3.4-5.6z" opacity="1" data-original="#379df1" class=""></path><path fill="#ffffff" d="M9 6.7c-.4.4-.4 1 0 1.4l3.9 3.9L9 15.9c-.4.4-.4 1 0 1.4s1 .4 1.4 0l4.6-4.6c.4-.4.4-1 0-1.4l-4.6-4.6c-.4-.4-1-.4-1.4 0z" opacity="1" data-original="#ffffff" class=""></path></g></svg>